<?xml version="1.0" encoding="UTF-8" standalone="no"?><svg xmlns="http://www.w3.org/2000/svg" xmlns:xlink="http://www.w3.org/1999/xlink" contentScriptType="application/ecmascript" contentStyleType="text/css" height="100px" preserveAspectRatio="none" style="width:258px;height:100px;" version="1.1" viewBox="0 0 258 100" width="258px" zoomAndPan="magnify"><defs><filter height="300%" id="fzr8x6fu58pkw" width="300%" x="-1" y="-1"><feGaussianBlur result="blurOut" stdDeviation="2.0"/><feColorMatrix in="blurOut" result="blurOut2" type="matrix" values="0 0 0 0 0 0 0 0 0 0 0 0 0 0 0 0 0 0 .4 0"/><feOffset dx="4.0" dy="4.0" in="blurOut2" result="blurOut3"/><feBlend in="SourceGraphic" in2="blurOut3" mode="normal"/></filter></defs><g><ellipse cx="213.4802" cy="48.2841" fill="#DDFFFF" filter="url(#fzr8x6fu58pkw)" rx="33.9802" ry="27.7841" style="stroke: #A80036; stroke-width: 1.5;"/><text fill="#000000" font-family="sans-serif" font-size="14" lengthAdjust="spacingAndGlyphs" textLength="0" x="215.4802" y="36.54"/><text fill="#000000" font-family="sans-serif" font-size="14" lengthAdjust="spacingAndGlyphs" textLength="40" x="193.4802" y="53.0283">World</text><text fill="#000000" font-family="sans-serif" font-size="14" lengthAdjust="spacingAndGlyphs" textLength="0" x="215.4802" y="69.5165"/><!--MD5=[e8c322128e8bed006310bd0f11633135]
entity Human--><ellipse cx="30.5" cy="17.5" fill="#FEFECE" filter="url(#fzr8x6fu58pkw)" rx="8" ry="8" style="stroke: #A80036; stroke-width: 1.5;"/><path d="M30.5,25.5 L30.5,52.5 M17.5,33.5 L43.5,33.5 M30.5,52.5 L17.5,67.5 M30.5,52.5 L43.5,67.5 " fill="none" filter="url(#fzr8x6fu58pkw)" style="stroke: #A80036; stroke-width: 1.5;"/><text fill="#000000" font-family="sans-serif" font-size="14" lengthAdjust="spacingAndGlyphs" textLength="49" x="6" y="86.5352">Human</text><path d="M90.5,36 L90.5,44.5 L55.31,48.5 L90.5,52.5 L90.5,61.3105 A0,0 0 0 0 90.5,61.3105 L144.5,61.3105 A0,0 0 0 0 144.5,61.3105 L144.5,46 L134.5,36 L90.5,36 A0,0 0 0 0 90.5,36 " fill="#FBFB77" filter="url(#fzr8x6fu58pkw)" style="stroke: #A80036; stroke-width: 1.0;"/><path d="M134.5,36 L134.5,46 L144.5,46 L134.5,36 " fill="#FBFB77" style="stroke: #A80036; stroke-width: 1.0;"/><text fill="#000000" font-family="sans-serif" font-size="13" lengthAdjust="spacingAndGlyphs" textLength="33" x="96.5" y="53.5684">Hello</text><!--MD5=[9cc5c6c175039f4756f8dc348488dfb1]
@startuml
(\nWorld\n) #dff
note right of Human : Hello
@enduml

PlantUML version 1.2020.06(Sun Apr 05 14:38:32 CEST 2020)
(APACHE source distribution)
Java Runtime: OpenJDK Runtime Environment
JVM: OpenJDK 64-Bit Server VM
Java Version: 14.0.1+7
Operating System: Mac OS X
Default Encoding: UTF-8
Language: de
Country: DE
--></g></svg>