<?xml version="1.0" encoding="UTF-8" standalone="no"?>
<!DOCTYPE svg PUBLIC "-//W3C//DTD SVG 1.1//EN" "http://www.w3.org/Graphics/SVG/1.1/DTD/svg11.dtd">
<svg width="100%" height="100%" viewBox="0 0 1182 289" version="1.1" xmlns="http://www.w3.org/2000/svg" xmlns:xlink="http://www.w3.org/1999/xlink" xml:space="preserve" xmlns:serif="http://www.serif.com/" style="fill-rule:evenodd;clip-rule:evenodd;stroke-linejoin:round;stroke-miterlimit:2;">
    <g transform="matrix(1,0,0,1,-236.217,-237.367)">
        <g transform="matrix(4.16667,0,0,4.16667,0,0)">
            <path d="M340.157,91.481C340.157,86.557 339.411,81.994 337.92,77.792C336.424,73.592 334.233,69.921 331.34,66.783C328.446,63.643 324.878,61.203 320.629,59.466C317.104,58.021 313.118,57.212 308.722,56.968L302.74,62.95L305.902,62.95C310.951,62.95 315.073,64.181 318.275,66.643C321.475,69.108 323.838,72.483 325.362,76.777C326.884,81.07 327.646,85.972 327.646,91.481C327.646,96.99 326.946,101.892 325.546,106.185C324.146,110.478 321.86,113.856 318.691,116.318C315.52,118.781 311.258,120.012 305.902,120.012L293.807,120.012C293.007,120.012 292.475,119.927 292.215,119.756C291.953,119.587 291.822,119.118 291.822,118.349L291.822,73.868L281.204,84.486L281.204,118.118C281.204,118.827 281.142,119.318 281.02,119.596C280.896,119.872 280.48,120.012 279.773,120.012L272.709,120.012C272.002,120.012 271.547,120.118 271.349,120.334C271.147,120.549 271.049,121.027 271.049,121.765L271.049,124.536C271.049,125.212 271.162,125.643 271.393,125.827C271.624,126.012 272.078,126.105 272.756,126.105L305.995,126.105C311.289,126.105 316.035,125.236 320.238,123.496C324.438,121.758 328.024,119.318 330.993,116.178C333.964,113.041 336.233,109.369 337.802,105.169C339.373,100.967 340.157,96.405 340.157,91.481Z" style="fill:rgb(243,111,33);fill-rule:nonzero;"/>
            <path d="M97.883,56.991L97.883,84.08L71.057,84.08L71.057,56.991L56.692,56.991L56.692,126.104L71.057,126.104L71.057,96.276L97.883,96.276L97.883,126.104L112.199,126.104L112.199,56.991L97.883,56.991Z" style="fill:rgb(35,31,32);fill-rule:nonzero;"/>
            <path d="M120.82,56.991L120.82,69.187L139.213,69.187L139.213,126.104L153.577,126.104L153.577,69.187L171.971,69.187L171.971,56.991L120.82,56.991Z" style="fill:rgb(35,31,32);fill-rule:nonzero;"/>
            <path d="M257.217,56.991L245.264,107.864L232.288,56.991L218.713,56.991L205.693,107.864L193.742,56.991L179.609,56.991L196.891,126.104L213.2,126.104L225.431,77.598L237.733,126.013L259.584,104.162L271.346,56.991L257.217,56.991Z" style="fill:rgb(35,31,32);fill-rule:nonzero;"/>
        </g>
    </g>
</svg>
